# xmcd
# 
# Track frame offsets:
#     150
#     18014
#     25694
#     39698
#     54074
#     64656
#     79314
#     94738
#     108826
#     118772
#     138370
#     146710
#     157964
#     170990
#     180470
# 
# Disc length: 2684
# 
# Revision: 0
# Processed by: cddbd v1.5.2PL0 Copyright (c) Steve Scherf et al.
# Submitted via: fre:ac v1.0.17
# 
DISCID=be0a7a0f
DTITLE=Marty Robbins - Gunfighter Ballads and Trail Songs 
DYEAR=1959
DGENRE=Country
TTITLE0=Big Iron
TTITLE1=A Hundred and Sixty Acres
TTITLE2=They're Hanging Me Tonight
TTITLE3=Cool Water
TTITLE4=Billy the Kid
TTITLE5=Utah Carol
TTITLE6=The Strawberry Roan
TTITLE7=The Master's Call
TTITLE8=Running Gun
TTITLE9=El Paso
TTITLE10=In the Valley
TTITLE11=The Little Green Valley
TTITLE12=The Hanging Tree
TTITLE13=Saddle Tramp
TTITLE14=El Paso (Full-Length Version)
EXTD=YEAR: 1959
EXTT0=
EXTT1=
EXTT2=
EXTT3=
EXTT4=
EXTT5=
EXTT6=
EXTT7=
EXTT8=
EXTT9=
EXTT10=
EXTT11=
EXTT12=
EXTT13=
EXTT14=
PLAYORDER=
